<mxfile host="app.diagrams.net" agent="Mozilla/5.0 (Windows NT 10.0; Win64; x64) AppleWebKit/537.36 (KHTML, like Gecko) Chrome/140.0.0.0 Safari/537.36" version="28.2.5">
  <diagram name="Page-1" id="a2Uz-Rfnn4IpHRplkJp0">
    <mxGraphModel dx="646" dy="465" grid="1" gridSize="10" guides="1" tooltips="1" connect="1" arrows="1" fold="1" page="1" pageScale="1" pageWidth="850" pageHeight="1100" math="0" shadow="0">
      <root>
        <mxCell id="0" />
        <mxCell id="1" parent="0" />
        <mxCell id="QY5LBYoehK4ceg1x3ypw-1" value="0" style="swimlane;fontStyle=0;childLayout=stackLayout;horizontal=1;startSize=20;fillColor=#ffffff;horizontalStack=0;resizeParent=1;resizeParentMax=0;resizeLast=0;collapsible=0;marginBottom=0;swimlaneFillColor=#ffffff;rounded=1;" vertex="1" parent="1">
          <mxGeometry x="373" y="250" width="105" height="100" as="geometry" />
        </mxCell>
        <mxCell id="QY5LBYoehK4ceg1x3ypw-2" value="Online Order System&amp;nbsp;" style="text;html=1;align=center;verticalAlign=middle;whiteSpace=wrap;rounded=0;" vertex="1" parent="QY5LBYoehK4ceg1x3ypw-1">
          <mxGeometry y="20" width="105" height="80" as="geometry" />
        </mxCell>
        <mxCell id="QY5LBYoehK4ceg1x3ypw-21" style="edgeStyle=orthogonalEdgeStyle;rounded=0;orthogonalLoop=1;jettySize=auto;html=1;exitX=1;exitY=1;exitDx=0;exitDy=0;exitPerimeter=0;entryX=0;entryY=0.25;entryDx=0;entryDy=0;" edge="1" parent="1" source="QY5LBYoehK4ceg1x3ypw-3" target="QY5LBYoehK4ceg1x3ypw-1">
          <mxGeometry relative="1" as="geometry" />
        </mxCell>
        <mxCell id="QY5LBYoehK4ceg1x3ypw-3" value="&lt;span style=&quot;color: rgb(39, 53, 64); font-family: &amp;quot;Lato Extended&amp;quot;, Lato, &amp;quot;Helvetica Neue&amp;quot;, Helvetica, Arial, sans-serif; text-align: start; background-color: rgb(255, 255, 255);&quot;&gt;&lt;font style=&quot;font-size: 13px;&quot;&gt;CUSTOMER&lt;/font&gt;&lt;/span&gt;" style="html=1;dashed=0;whiteSpace=wrap;shape=mxgraph.dfd.externalEntity" vertex="1" parent="1">
          <mxGeometry x="210" y="100" width="100" height="100" as="geometry" />
        </mxCell>
        <mxCell id="QY5LBYoehK4ceg1x3ypw-4" value="Id" style="autosize=1;part=1;resizable=0;strokeColor=inherit;fillColor=inherit;gradientColor=inherit;" vertex="1" parent="QY5LBYoehK4ceg1x3ypw-3">
          <mxGeometry width="20" height="20" relative="1" as="geometry">
            <mxPoint x="15" y="15" as="offset" />
          </mxGeometry>
        </mxCell>
        <mxCell id="QY5LBYoehK4ceg1x3ypw-25" style="edgeStyle=orthogonalEdgeStyle;rounded=0;orthogonalLoop=1;jettySize=auto;html=1;exitX=0;exitY=0;exitDx=0;exitDy=90;exitPerimeter=0;entryX=0.5;entryY=0;entryDx=0;entryDy=0;" edge="1" parent="1" source="QY5LBYoehK4ceg1x3ypw-5" target="QY5LBYoehK4ceg1x3ypw-1">
          <mxGeometry relative="1" as="geometry" />
        </mxCell>
        <mxCell id="QY5LBYoehK4ceg1x3ypw-5" value="SELLER" style="html=1;dashed=0;whiteSpace=wrap;shape=mxgraph.dfd.externalEntity" vertex="1" parent="1">
          <mxGeometry x="530" y="100" width="100" height="100" as="geometry" />
        </mxCell>
        <mxCell id="QY5LBYoehK4ceg1x3ypw-6" value="Id" style="autosize=1;part=1;resizable=0;strokeColor=inherit;fillColor=inherit;gradientColor=inherit;" vertex="1" parent="QY5LBYoehK4ceg1x3ypw-5">
          <mxGeometry width="20" height="20" relative="1" as="geometry">
            <mxPoint x="15" y="15" as="offset" />
          </mxGeometry>
        </mxCell>
        <mxCell id="QY5LBYoehK4ceg1x3ypw-7" value="SHIPPING&amp;nbsp;&lt;div&gt;PARTNER&amp;nbsp;&lt;/div&gt;" style="html=1;dashed=0;whiteSpace=wrap;shape=mxgraph.dfd.externalEntity" vertex="1" parent="1">
          <mxGeometry x="210" y="360" width="100" height="100" as="geometry" />
        </mxCell>
        <mxCell id="QY5LBYoehK4ceg1x3ypw-8" value="Id" style="autosize=1;part=1;resizable=0;strokeColor=inherit;fillColor=inherit;gradientColor=inherit;" vertex="1" parent="QY5LBYoehK4ceg1x3ypw-7">
          <mxGeometry width="20" height="20" relative="1" as="geometry">
            <mxPoint x="15" y="15" as="offset" />
          </mxGeometry>
        </mxCell>
        <mxCell id="QY5LBYoehK4ceg1x3ypw-19" value="PAYMENT GATEWAY" style="html=1;dashed=0;whiteSpace=wrap;shape=mxgraph.dfd.externalEntity" vertex="1" parent="1">
          <mxGeometry x="530" y="360" width="100" height="100" as="geometry" />
        </mxCell>
        <mxCell id="QY5LBYoehK4ceg1x3ypw-20" value="Id" style="autosize=1;part=1;resizable=0;strokeColor=inherit;fillColor=inherit;gradientColor=inherit;" vertex="1" parent="QY5LBYoehK4ceg1x3ypw-19">
          <mxGeometry width="20" height="20" relative="1" as="geometry">
            <mxPoint x="15" y="15" as="offset" />
          </mxGeometry>
        </mxCell>
        <mxCell id="QY5LBYoehK4ceg1x3ypw-22" value=" Browse/Search Requests, Account Info, Cart Updates, Checkout Details, Payment Authorization Data (entered at checkout)" style="text;html=1;align=center;verticalAlign=middle;whiteSpace=wrap;rounded=0;" vertex="1" parent="1">
          <mxGeometry x="140" y="220" width="170" height="80" as="geometry" />
        </mxCell>
        <mxCell id="QY5LBYoehK4ceg1x3ypw-23" style="edgeStyle=orthogonalEdgeStyle;rounded=0;orthogonalLoop=1;jettySize=auto;html=1;exitX=0.25;exitY=0;exitDx=0;exitDy=0;entryX=0;entryY=0;entryDx=100;entryDy=55;entryPerimeter=0;" edge="1" parent="1" source="QY5LBYoehK4ceg1x3ypw-1" target="QY5LBYoehK4ceg1x3ypw-3">
          <mxGeometry relative="1" as="geometry" />
        </mxCell>
        <mxCell id="QY5LBYoehK4ceg1x3ypw-24" value="Product Results/Details, Cart/Order Confirmations, Shipment/Tracking Updates, Account Updates" style="text;html=1;align=center;verticalAlign=middle;whiteSpace=wrap;rounded=0;" vertex="1" parent="1">
          <mxGeometry x="320" y="90" width="150" height="60" as="geometry" />
        </mxCell>
        <mxCell id="QY5LBYoehK4ceg1x3ypw-28" value="Product/Price Updates, Inventory Updates, Promotions" style="text;html=1;align=center;verticalAlign=middle;whiteSpace=wrap;rounded=0;" vertex="1" parent="1">
          <mxGeometry x="440" y="200" width="170" height="30" as="geometry" />
        </mxCell>
        <mxCell id="QY5LBYoehK4ceg1x3ypw-29" style="edgeStyle=orthogonalEdgeStyle;rounded=0;orthogonalLoop=1;jettySize=auto;html=1;exitX=1;exitY=0.5;exitDx=0;exitDy=0;entryX=0;entryY=0;entryDx=100;entryDy=77.5;entryPerimeter=0;" edge="1" parent="1" source="QY5LBYoehK4ceg1x3ypw-2" target="QY5LBYoehK4ceg1x3ypw-5">
          <mxGeometry relative="1" as="geometry" />
        </mxCell>
        <mxCell id="QY5LBYoehK4ceg1x3ypw-30" value="Sales/Order Reports, Low-Stock Alerts, Returns/Refund Reports" style="text;html=1;align=center;verticalAlign=middle;whiteSpace=wrap;rounded=0;" vertex="1" parent="1">
          <mxGeometry x="650" y="200" width="110" height="90" as="geometry" />
        </mxCell>
        <mxCell id="QY5LBYoehK4ceg1x3ypw-31" style="edgeStyle=orthogonalEdgeStyle;rounded=0;orthogonalLoop=1;jettySize=auto;html=1;exitX=0.75;exitY=1;exitDx=0;exitDy=0;entryX=0;entryY=0;entryDx=0;entryDy=90;entryPerimeter=0;" edge="1" parent="1" source="QY5LBYoehK4ceg1x3ypw-1" target="QY5LBYoehK4ceg1x3ypw-19">
          <mxGeometry relative="1" as="geometry" />
        </mxCell>
        <mxCell id="QY5LBYoehK4ceg1x3ypw-32" value="Payment Authorization/Charge/Capture/Refund Requests ↔ Payment Results (approved/declined), Settlement/Dispute Notices" style="text;html=1;align=center;verticalAlign=middle;whiteSpace=wrap;rounded=0;" vertex="1" parent="1">
          <mxGeometry x="440" y="470" width="280" height="30" as="geometry" />
        </mxCell>
        <mxCell id="QY5LBYoehK4ceg1x3ypw-33" style="edgeStyle=orthogonalEdgeStyle;rounded=0;orthogonalLoop=1;jettySize=auto;html=1;exitX=0.25;exitY=1;exitDx=0;exitDy=0;entryX=0;entryY=0;entryDx=55;entryDy=100;entryPerimeter=0;" edge="1" parent="1" source="QY5LBYoehK4ceg1x3ypw-2" target="QY5LBYoehK4ceg1x3ypw-7">
          <mxGeometry relative="1" as="geometry" />
        </mxCell>
        <mxCell id="QY5LBYoehK4ceg1x3ypw-34" value="Shipment Requests (address, package, service) ↔ Labels/Tracking IDs; Tracking Status Updates" style="text;html=1;align=center;verticalAlign=middle;whiteSpace=wrap;rounded=0;" vertex="1" parent="1">
          <mxGeometry x="190" y="500" width="200" height="50" as="geometry" />
        </mxCell>
      </root>
    </mxGraphModel>
  </diagram>
</mxfile>
